<?xml version="1.0" encoding="UTF-8" standalone="no"?>
<!-- Created with Inkscape (http://www.inkscape.org/) -->

<svg
   width="24"
   height="24"
   viewBox="0 0 24 24"
   version="1.1"
   id="svg834"
   xmlns="http://www.w3.org/2000/svg"
   xmlns:svg="http://www.w3.org/2000/svg">
  <defs
     id="defs831" />
  <path
     id="path11806"
     d="m 12,3 c -4.9587132,0 -9,4.0412868 -9,9 0,2.760473 1.2528513,5.235763 3.21875,6.888672 l 1.0136719,-1.75586 C 5.8581492,15.856275 5,14.032167 5,12 5,8.122166 8.122166,5 12,5 c 3.877834,0 7,3.122166 7,7 0,2.032167 -0.858149,3.856275 -2.232422,5.132812 l 1.013672,1.75586 C 19.747149,17.235763 21,14.760473 21,12 21,7.0412868 16.958713,3 12,3 Z" />
  <path
     id="path13873"
     d="m 12,12.34 5,8.660255 H 7 Z" />
</svg>
