<?xml version="1.0" encoding="UTF-8" standalone="no"?>
<!-- Created with Inkscape (http://www.inkscape.org/) -->

<svg
   width="24"
   height="24"
   viewBox="0 0 24 24"
   version="1.1"
   id="svg834"
   xmlns="http://www.w3.org/2000/svg"
   xmlns:svg="http://www.w3.org/2000/svg">
  <defs
     id="defs831" />
  <path
     id="path15407"
     d="m 12,3 5,8.660255 H 7 Z" />
  <path
     id="path15410"
     d="m 12,20.999672 c -4.9587132,0 -9,-4.041287 -9,-9 C 3,9.239199 4.2528513,6.763909 6.21875,5.111 L 7.2324219,6.86686 C 5.8581492,8.143397 5,9.967505 5,11.999672 c 0,3.877834 3.122166,7 7,7 3.877834,0 7,-3.122166 7,-7 C 19,9.967505 18.141851,8.143397 16.767578,6.86686 L 17.78125,5.111 C 19.747149,6.763909 21,9.239199 21,11.999672 c 0,4.958713 -4.041287,9 -9,9 z" />
</svg>
