<?xml version="1.0" encoding="UTF-8" standalone="no"?>
<svg xmlns:dc="http://purl.org/dc/elements/1.1/" 
   xmlns:cc="http://creativecommons.org/ns#" 
   xmlns:rdf="http://www.w3.org/1999/02/22-rdf-syntax-ns#" 
   xmlns:svg="http://www.w3.org/2000/svg" 
   xmlns="http://www.w3.org/2000/svg" 
   xmlns:xlink="http://www.w3.org/1999/xlink" 
   id="svg6" 
   y="0px" 
   x="0px" 
   xml:space="preserve" 
   version="1.1" 
   viewBox="0 0 108 108" 
   width="108" 
   height="108">
   <metadata id="metadata12">
      <rdf:RDF>
         <cc:Work rdf:about="">
            <dc:format>image/svg+xml</dc:format>
            <dc:type rdf:resource="http://purl.org/dc/dcmitype/StillImage" />
            <dc:title>OccTax launcher icon</dc:title>
         </cc:Work>
      </rdf:RDF>
   </metadata>
   <defs id="defs10">
      <linearGradient id="linearGradient847">
         <stop id="stop843" 
            offset="0" 
            style="stop-color:#000000;stop-opacity:0.25098041" />
         <stop id="stop845" 
            offset="1" 
            style="stop-color:#000000;stop-opacity:0" />
      </linearGradient>
      <linearGradient gradientUnits="userSpaceOnUse" 
         y2="98" 
         x2="110" 
         y1="43" 
         x1="55" 
         id="linearGradient849" 
         xlink:href="#linearGradient847" />
   </defs>
   <path id="banner_shadow" 
      d="m 55,26 v -1 h 53 v 1 z" 
      style="fill:#000000;fill-opacity:0.19607843" />
   <path id="banner" 
      d="M 54,25 V 0 h 54 v 25 z" 
      style="fill:#545473" />
   <g id="dev">
      <path id="d" 
         d="m 62.117209,10.127604 v 4.744791 h 0.71875 q 1.229166,0 1.875,-0.609375 0.651041,-0.609375 0.651041,-1.770833 0,-1.15625 -0.645833,-1.760416 -0.645833,-0.604167 -1.880208,-0.604167 z M 60.112,8.6119788 h 2.114584 q 1.770833,0 2.635416,0.2552084 0.869792,0.25 1.489584,0.8541667 0.546875,0.5260421 0.8125,1.2135421 0.265625,0.6875 0.265625,1.557291 0,0.880208 -0.265625,1.572917 -0.265625,0.6875 -0.8125,1.213541 -0.625,0.604167 -1.5,0.859376 -0.875,0.25 -2.625,0.25 H 60.112 Z" 
         style="fill:#ffffff" />
      <path id="e" 
         d="m 68.966167,8.6119788 h 5.411459 v 1.5156252 h -3.40625 v 1.447917 h 3.203125 v 1.515624 h -3.203125 v 1.78125 h 3.520833 v 1.515626 h -5.526042 z" 
         style="fill:#ffffff" />
      <path id="v" 
         d="m 75.330751,8.6119788 h 2.015625 l 2.0625,5.7395832 2.057292,-5.7395832 h 2.015625 l -2.880209,7.7760422 h -2.390625 z" 
         style="fill:#ffffff" />
   </g>
   <path id="drop_shadow" 
      d="m 85.138672,14.009766 c 0,0 -2.800169,8.986356 -14.484375,15.050781 -4.764918,-3.187831 -10.489535,-5.050781 -16.644531,-5.050781 -16.290207,0 -29.566182,13.031095 -29.980469,29.222656 -3.065376,-0.275608 -6.469172,-0.01686 -10.019531,0.777344 L 26.2539,65.707117 c 0.0307,0.07935 0.06056,0.159222 0.0918,0.238281 l 0.0918,0.236329 c 2.245474,5.565882 5.819304,10.397038 9.667969,14.396484 37.682134,35.596709 65.641231,66.909899 97.845691,97.833979 L 183.15813,112.02938 85.138393,14.009938 Z" 
      style="color:#000000;opacity:1;solid-color:#000000;solid-opacity:1;fill:url(#linearGradient849);fill-opacity:1" />
   <g id="g891">
      <path id="poi" 
         d="m 54,23.999998 c -16.550776,0 -30,13.449224 -30,30 0,0.598201 0.02199,1.191641 0.05664,1.78125 0.02251,0.426099 0.05611,0.847619 0.0957,1.267578 0.0014,0.01375 0.0044,0.02727 0.0059,0.04102 C 26.370786,80.226601 54,93.999998 54,93.999998 c 0,0 25.183858,-12.607454 29.390625,-33.958984 0.129654,-0.658063 0.241661,-1.323472 0.330078,-1.998047 0.06305,-0.466394 0.1169,-0.93531 0.158203,-1.408203 0.0175,-0.205777 0.03341,-0.411905 0.04687,-0.619141 C 83.970192,55.34887 84,54.677868 84,53.999998 c 0,-16.550776 -13.449224,-30 -30,-30 z m 0,3 c 14.929456,0 27,12.070545 27,27 0,14.929455 -12.070544,27 -27,27 -14.929454,0 -27,-12.070545 -27,-27 0,-14.929455 12.070546,-27 27,-27 z" 
         style="fill:#000000" />
      <path id="hummingbird" 
         d="m 93.999996,26.327035 c 0,0 -3.858735,3.552415 -15.03466,5.752199 0,0 5.565487,-3.595915 4.587132,-10.317283 0,0 2.521553,-0.491334 1.576581,-7.761949 0,0 -3.275602,10.615206 -17.691226,16.556944 0,0 -7.713945,-8.183631 -13.932149,0.418844 -0.0121,0.01299 -0.02586,0.02225 -0.03645,0.03644 -0.584874,0.762666 -9.469223,11.463342 -9.469223,11.463342 l 0.09406,-0.0858 0.05077,-0.04761 8.635489,-7.99967 c 0.007,-0.0057 1.649368,-1.211657 4.530911,0.444226 1.468816,0.850835 3.214765,2.419009 5.034845,5.265811 0,0 3.305469,5.41319 14.328092,10.299676 1.325217,0.58749 3.325833,1.402902 5.325833,13.647799 0,0 2.485764,-17 -6.076134,-26.084483 -0.002,6.34e-4 9.776842,-0.694679 18.076133,-11.588432 z m -38.721211,6.001221 c -0.30652,0.02181 -0.577534,-0.187381 -0.604054,-0.467549 -0.02645,-0.279535 0.20084,-0.524782 0.508061,-0.546627 0.30722,-0.02185 0.577531,0.187387 0.604048,0.46755 0.02582,0.280218 -0.200837,0.524782 -0.508055,0.546626 z" 
         style="fill:#000000" />
      <g id="flower">
         <path id="path5220-3" 
            d="m 14,53.999998 c 13.79472,5.18111 12.203009,13.165411 22.396456,15.9786 -0.788804,-2.014517 -3.241405,-9.546491 -8.425326,-11.566025 4.569511,1.230896 7.638537,7.800539 9.393561,10.428999 C 39.137848,55.711315 27.628386,50.951356 14,53.999998 Z" 
            style="fill:#000000" />
         <path id="path5222" 
            d="m 64,68.084039 c -12.480719,-1.239926 -13.896022,6.462729 -22.771436,4.088788 1.409258,-2.449751 2.729304,-3.761472 5.808403,-5.946671 -2.55088,1.485414 -4.134532,2.709286 -6.247411,5.508427 C 44.230541,60.619847 54.778819,60.631887 64,68.084039 Z" 
            style="fill:#000000" />
         <path id="path5224" 
            d="m 51.979444,48.897188 c -0.967227,0.261541 -0.701605,-1.401578 -1.492424,-1.665126 -0.96622,-0.613943 -1.322061,3.06269 -2.903698,2.535593 -1.054425,-0.351398 -0.34879,-2.451757 -0.963198,-3.240395 -1.228819,-1.577277 -2.904706,3.411077 -3.957116,1.308711 -0.701606,-1.401578 0.971258,-3.763479 -0.523182,-3.677636 -0.615417,0.08685 -1.231842,1.049176 -1.846251,0.260538 -1.756032,-1.752975 -3.163275,-1.054193 -4.220722,1.220862 -1.762076,3.49993 -1.067522,11.029897 1.038306,14.359145 1.140614,1.839821 2.109856,-0.172689 3.338676,1.404588 1.317023,1.314731 1.934455,-0.523083 2.987873,0.703799 0.0872,0.612939 0.702613,0.526093 1.142629,0.08885 3.781713,-1.659105 7.740845,-4.718785 9.415723,-8.831654 0.793841,-2.362904 0.88406,-4.376418 -2.016616,-4.467277 z" 
            style="fill:#000000" />
         <path id="path5226" 
            d="m 45.834341,41.88629 c 0.702616,0.526093 0.965213,1.489427 0.436994,2.189212 -0.264613,0.787635 -1.231842,1.049177 -1.934455,0.523083 -0.790819,-0.263548 -1.053418,-1.226882 -0.788804,-2.014516 0.528219,-0.699786 1.495448,-0.961327 2.286265,-0.697779 z" 
            style="fill:#000000" />
         <path id="path5228" 
            d="m 49.260215,43.903817 c 0.790819,0.263548 1.053418,1.226882 0.788804,2.014517 -0.528219,0.699785 -1.495448,0.961327 -2.198062,0.435233 -0.527213,-0.175698 -0.789811,-1.139032 -0.525198,-1.926667 0.52822,-0.699785 1.231842,-1.049176 1.934456,-0.523083 z" 
            style="fill:#000000" />
         <path id="path5230" 
            d="m 49.088843,40.051486 c 0.702614,0.526093 1.053417,1.226882 0.525197,1.926667 -0.264613,0.787635 -1.231841,1.049176 -2.02266,0.785628 -0.702614,-0.526093 -0.965213,-1.489427 -0.525197,-1.926667 0.264613,-0.787635 1.231841,-1.049177 2.02266,-0.785628 z" 
            style="fill:#000000" />
         <path id="path5232" 
            d="m 51.635694,42.068009 c 0.527213,0.175699 0.878016,0.876488 0.349795,1.576273 -0.176409,0.52509 -0.791826,0.611936 -1.319039,0.436237 -0.439007,-0.438243 -0.789811,-1.139032 -0.349795,-1.576273 0.176409,-0.52509 0.791826,-0.611936 1.319039,-0.436237 z" 
            style="fill:#000000" />
         <path id="path5234" 
            d="m 46.189174,39.085142 c 0.439008,0.438244 0.526205,1.051183 0.349796,1.576273 -0.440015,0.43724 -1.055432,0.524086 -1.582644,0.348387 -0.439008,-0.438243 -0.526205,-1.051183 -0.349796,-1.576272 0.440015,-0.437241 1.055433,-0.524087 1.582644,-0.348388 z" 
            style="fill:#000000" />
         <path id="path5236" 
            d="m 42.142848,41.531882 c 0.527211,0.175699 0.878016,0.876488 0.349795,1.576273 -0.176409,0.52509 -0.791826,0.611936 -1.319039,0.436237 -0.439008,-0.438244 -0.789811,-1.139032 -0.349796,-1.576273 0.176409,-0.52509 0.791826,-0.611936 1.31904,-0.436237 z" 
            style="fill:#000000" />
         <path id="path5238" 
            d="m 52.511694,44.695465 c 0.439008,0.438244 0.789811,1.139033 0.349796,1.576273 -0.176409,0.52509 -0.791826,0.611936 -1.319039,0.436237 -0.527212,-0.175698 -0.878015,-0.876487 -0.349796,-1.576273 0.17641,-0.525089 0.791827,-0.611935 1.319039,-0.436237 z" 
            style="fill:#000000" />
         <path id="path5240" 
            d="m 40.18522,62.191103 c -2.204106,5.688139 -2.473757,10.853194 -0.37095,16.808895 l 1.319037,-0.436237 C 39.293101,73.571394 39.300153,67.443005 41.239646,62.5425 c -0.35181,0.174696 -0.615418,0.08685 -1.054426,-0.351397 z" 
            style="fill:#000000" />
      </g>
   </g>
</svg>