<?xml version="1.0" encoding="UTF-8" standalone="no"?>
<!-- Created with Inkscape (http://www.inkscape.org/) -->

<svg
   width="288"
   height="288"
   viewBox="0 0 288 288"
   version="1.1"
   id="svg874"
   sodipodi:docname="occtax_launcher_anim.svg"
   inkscape:version="1.2.2 (b0a8486541, 2022-12-01)"
   xmlns:inkscape="http://www.inkscape.org/namespaces/inkscape"
   xmlns:sodipodi="http://sodipodi.sourceforge.net/DTD/sodipodi-0.dtd"
   xmlns="http://www.w3.org/2000/svg"
   xmlns:svg="http://www.w3.org/2000/svg">
  <sodipodi:namedview
     id="namedview18"
     pagecolor="#505050"
     bordercolor="#ffffff"
     borderopacity="1"
     inkscape:pageshadow="0"
     inkscape:pageopacity="0"
     inkscape:pagecheckerboard="1"
     showgrid="false"
     inkscape:zoom="5.6568543"
     inkscape:cx="165.81654"
     inkscape:cy="115.96551"
     inkscape:window-width="1920"
     inkscape:window-height="1023"
     inkscape:window-x="0"
     inkscape:window-y="33"
     inkscape:window-maximized="1"
     inkscape:current-layer="svg874"
     inkscape:showpageshadow="0"
     inkscape:deskcolor="#505050"
     showguides="true">
    <sodipodi:guide
       position="0,240"
       orientation="0,1"
       id="guide1032"
       inkscape:locked="false"
       inkscape:label=""
       inkscape:color="rgb(0,134,229)" />
    <sodipodi:guide
       position="48,288"
       orientation="-1,0"
       id="guide1034"
       inkscape:locked="false"
       inkscape:label=""
       inkscape:color="rgb(0,134,229)" />
    <sodipodi:guide
       position="0,48"
       orientation="0,1"
       id="guide1036"
       inkscape:locked="false"
       inkscape:label=""
       inkscape:color="rgb(0,134,229)" />
    <sodipodi:guide
       position="240,288"
       orientation="-1,0"
       id="guide1038"
       inkscape:locked="false"
       inkscape:label=""
       inkscape:color="rgb(0,134,229)" />
    <sodipodi:guide
       position="144,144"
       orientation="0,1"
       id="guide1441"
       inkscape:locked="false"
       inkscape:label=""
       inkscape:color="rgb(0,134,229)" />
    <sodipodi:guide
       position="144,144"
       orientation="-1,0"
       id="guide1443"
       inkscape:locked="false"
       inkscape:label=""
       inkscape:color="rgb(0,134,229)" />
  </sodipodi:namedview>
  <defs
     id="defs871">
    <filter
       inkscape:label="Opacity"
       style="color-interpolation-filters:sRGB;"
       id="filter1802"
       x="0"
       y="0"
       width="1"
       height="1">
      <feColorMatrix
         values="1 0 0 0 0 0 1 0 0 0 0 0 1 0 0 0 0 0 5 -1 "
         result="colormatrix"
         id="feColorMatrix1798" />
      <feComposite
         in2="colormatrix"
         operator="arithmetic"
         k2="1"
         result="composite"
         id="feComposite1800"
         k1="0"
         k3="0"
         k4="0" />
    </filter>
  </defs>
  <path
     id="stem"
     d="M 110.8444,163.65867 C 105.55456,177.31021 100.26449,206.98794 144.00018,240 l 0.49958,-4.45316 c -39.36816,-30.40862 -35.77951,-59.2836 -31.12474,-71.04481 -0.84434,0.41927 -1.477,0.20844 -2.53062,-0.84336 z"
     style="fill:#00701a;fill-opacity:1;stroke-width:0.264583"
     sodipodi:nodetypes="ccccc" />
  <path
     id="poi"
     d="m 143.99981,71.999996 c -39.72179,0 -71.99985,32.278154 -71.99985,72.000024 0,1.43568 0.0526,2.85994 0.13597,4.275 0.0544,1.02264 0.1347,2.03428 0.22967,3.04218 0.003,0.0327 0.0109,0.0653 0.0145,0.0984 5.3101,55.52824 71.62008,88.5844 71.62008,88.5844 0,0 60.44113,-30.25789 70.53734,-81.50158 0.31122,-1.57935 0.57999,-3.17633 0.79216,-4.79531 0.1513,-1.11935 0.28056,-2.24474 0.37971,-3.37969 0.0417,-0.49391 0.0798,-0.98857 0.11247,-1.48594 0.10659,-1.60021 0.17816,-3.21061 0.17816,-4.8375 0,-39.72187 -32.27808,-72.000021 -71.99985,-72.000021 z m 0,7.200002 c 35.83061,0 64.79986,28.969312 64.79986,64.800022 0,35.8307 -28.96925,64.80001 -64.79986,64.80001 -35.83062,0 -64.79987,-28.96931 -64.79987,-64.80001 0,-35.83071 28.96925,-64.800022 64.79987,-64.800022 z"
     style="fill:#000000;stroke-width:0.264583" />
  <path
     id="leaf_left"
     d="m 48.000009,144.00002 c 33.107257,12.43466 29.287159,31.59699 53.751381,38.34865 -1.893127,-4.83485 -7.779357,-22.91159 -20.220741,-27.75847 10.966803,2.95415 18.33245,18.7213 22.544501,25.0296 4.25557,-31.51262 -23.367085,-42.93653 -56.075141,-35.61978 z"
     style="fill:#00701a;stroke-width:0.264583;fill-opacity:1" />
  <path
     id="leaf_right"
     d="m 167.99975,177.80172 c -29.95366,-2.97582 -33.35038,15.51056 -54.65133,9.8131 3.38222,-5.87941 6.55032,-9.02754 13.94014,-14.27202 -6.1221,3.565 -9.92285,6.50229 -14.99375,13.22023 8.25834,-26.67537 33.57416,-26.64648 55.70494,-8.76131 z"
     style="fill:#00701a;stroke-width:0.264583;fill-opacity:1" />
  <path
     id="petals"
     d="m 139.15048,131.75327 c -2.32134,0.6277 -1.68385,-3.36379 -3.58181,-3.9963 -2.31892,-1.47347 -3.17294,7.35045 -6.96886,6.08542 -2.53061,-0.84335 -0.83709,-5.88422 -2.31167,-7.77695 -2.94916,-3.78546 -6.97128,8.18659 -9.49706,3.14091 -1.68385,-3.36379 2.33102,-9.03235 -1.25563,-8.82633 -1.477,0.20844 -2.95642,2.51802 -4.431,0.62529 -4.21446,-4.20714 -7.59184,-2.53006 -10.12971,2.93007 -4.22897,8.39983 -2.562044,26.47176 2.49193,34.46196 2.73747,4.41557 5.06365,-0.41446 8.01281,3.37101 3.16085,3.15535 4.64268,-1.2554 7.17088,1.68912 0.20928,1.47105 1.68627,1.26262 2.7423,0.21324 9.07609,-3.98186 18.57799,-11.32509 22.59769,-21.19598 1.90521,-5.67097 2.12174,-10.5034 -4.83987,-10.72147 z"
     style="fill:#f4511e;stroke-width:0.264583;fill-opacity:1" />
  <path
     id="stamen_01"
     d="m 124.40226,114.92711 c 1.68628,1.26262 2.31651,3.57463 1.04879,5.25411 -0.63507,1.89032 -2.95642,2.51803 -4.64268,1.2554 -1.89797,-0.63252 -2.5282,-2.94452 -1.89313,-4.83484 1.26772,-1.67949 3.58907,-2.30719 5.48702,-1.67467 z"
     style="fill:#ffa000;stroke-width:0.264583;fill-opacity:1" />
  <path
     id="stamen_02"
     d="m 132.62434,119.76918 c 1.89797,0.63251 2.5282,2.94451 1.89313,4.83484 -1.26772,1.67948 -3.58907,2.30718 -5.27534,1.04456 -1.26531,-0.42168 -1.89554,-2.73368 -1.26047,-4.624 1.26773,-1.67949 2.95641,-2.51803 4.64268,-1.2554 z"
     style="fill:#ffa000;stroke-width:0.264583;fill-opacity:1" />
  <path
     id="stamen_03"
     d="m 132.21305,110.52358 c 1.68627,1.26262 2.5282,2.94452 1.26047,4.624 -0.63507,1.89033 -2.95641,2.51802 -4.85437,1.88551 -1.68627,-1.26262 -2.31651,-3.57463 -1.26047,-4.624 0.63507,-1.89033 2.95641,-2.51803 4.85437,-1.88551 z"
     style="fill:#ffa000;stroke-width:0.264583;fill-opacity:1" />
  <path
     id="stamen_06"
     d="m 138.32548,115.36324 c 1.26531,0.42167 2.10724,2.10357 0.83951,3.78305 -0.42338,1.26022 -1.90038,1.46865 -3.16569,1.04697 -1.05361,-1.05178 -1.89554,-2.73368 -0.8395,-3.78306 0.42338,-1.26021 1.90037,-1.46864 3.16568,-1.04696 z"
     style="fill:#ffa000;stroke-width:0.264583;fill-opacity:1" />
  <path
     id="stamen_07"
     d="m 125.25386,108.20435 c 1.05362,1.05179 1.26289,2.52284 0.83951,3.78306 -1.05603,1.04938 -2.53303,1.25781 -3.79834,0.83613 -1.05361,-1.05179 -1.26289,-2.52284 -0.83951,-3.78306 1.05604,-1.04937 2.53304,-1.2578 3.79834,-0.83613 z"
     style="fill:#ffa000;stroke-width:0.264583;fill-opacity:1" />
  <path
     id="stamen_04"
     d="m 115.5427,114.07653 c 1.2653,0.42168 2.10723,2.10357 0.83951,3.78306 -0.42338,1.26021 -1.90038,1.46864 -3.16569,1.04697 -1.05362,-1.05179 -1.89554,-2.73368 -0.83951,-3.78306 0.42338,-1.26022 1.90038,-1.46865 3.16569,-1.04697 z"
     style="fill:#ffa000;stroke-width:0.264583;fill-opacity:1" />
  <path
     id="stamen_05"
     d="m 140.42788,121.66913 c 1.05361,1.05179 1.89554,2.73368 0.83951,3.78306 -0.42338,1.26021 -1.90038,1.46864 -3.16569,1.04697 -1.26531,-0.42168 -2.10723,-2.10357 -0.83951,-3.78306 0.42338,-1.26021 1.90038,-1.46864 3.16569,-1.04697 z"
     style="fill:#ffa000;stroke-width:0.264583;fill-opacity:1" />
  <circle
     style="opacity:1;fill:none;fill-opacity:1;stroke:#ff0000;stroke-width:1;stroke-linecap:square;stroke-linejoin:miter;stroke-dasharray:none;stroke-opacity:1;paint-order:stroke fill markers"
     id="path1523"
     cx="144"
     cy="144"
     r="95.5" />
  <path
     id="path408"
     d="m 164.64393,134.82574 c 0,0 -7.1951,11.13098 -20.64393,9.17426 0,0 -0.98312,5.04311 -15.53094,3.15316 0,0 21.24005,-6.5512 33.12891,-35.38244 0,0 15.95379,9.37217 14.67865,16.6638 -0.76214,4.35813 -11.63269,6.39122 -11.63269,6.39122 z"
     style="fill:#0000ff;fill-opacity:1;stroke-width:0.264583"
     sodipodi:nodetypes="ccccac" />
  <path
     id="path410"
     d="m 166.87533,101.12891 c 0,0 -15.42789,-16.374683 -27.8643,0.83807 -0.0242,0.0257 -0.0514,0.0446 -0.0726,0.0726 C 137.7687,103.56561 120,124.97666 120,124.97666 l 0.18814,-0.17165 0.10152,-0.0953 17.27097,-16.0066 c 0.0143,-0.0114 3.29874,-2.42441 9.06183,0.88886 2.93763,1.70244 6.4103,7.34101 10.06969,10.5364 0,0 4.18416,5.88645 28.34758,20.56384 4.5465,2.76165 8.23588,7.40051 10.65167,27.30799 0,0 4.97152,-34.01543 -12.15227,-52.19264 z m -24.31808,3.54423 c -0.61304,0.0439 -1.15507,-0.37495 -1.20811,-0.93552 -0.0529,-0.55933 0.40169,-1.05005 1.01613,-1.09375 0.61447,-0.0439 1.15506,0.37495 1.20809,0.93551 0.0514,0.56069 -0.40168,1.05005 -1.01611,1.09376 z"
     style="fill:#e9afaf;fill-opacity:1;stroke-width:0.264583"
     sodipodi:nodetypes="ccccccccssccccsccc" />
  <path
     id="path310"
     d="m 219.99967,92.66526 c 0,0 -7.71747,7.10804 -30.06932,11.50961 0,0 11.13098,-7.195092 9.17426,-20.643929 0,0 5.04311,-0.983108 3.15316,-15.530943 0,0 -6.5512,21.240052 -35.38244,33.128912 l 16.6638,14.67865 c 0,0 19.86226,-1.34514 36.46085,-23.142521 z"
     style="fill:#00ffff;fill-opacity:1;stroke-width:0.264583"
     sodipodi:nodetypes="cccccccc" />
  <path
     id="path496"
     d="m 166.87533,101.12891 c 0,0 -15.42789,-16.374683 -27.8643,0.83807 -0.0242,0.0257 -0.0514,0.0446 -0.0726,0.0726 C 137.7687,103.56561 120,124.97666 120,124.97666 l 0.18814,-0.17165 0.10152,-0.0953 17.27097,-16.0066 c 0.0143,-0.0114 3.29874,-2.42441 9.06183,0.88886 2.93763,1.70244 6.4103,7.34101 10.06969,10.5364 0,0 4.18416,5.88645 28.34758,20.56384 4.5465,2.76165 12.16477,4.17344 19.5645,19.25351 3.04671,6.20897 -3.94131,-25.96095 -21.0651,-44.13816 z m -24.31808,3.54423 c -0.61304,0.0439 -1.15507,-0.37495 -1.20811,-0.93552 -0.0529,-0.55933 0.40169,-1.05005 1.01613,-1.09375 0.61447,-0.0439 1.15506,0.37495 1.20809,0.93551 0.0514,0.56069 -0.40168,1.05005 -1.01611,1.09376 z"
     style="fill:#ff8080;fill-opacity:1;stroke-width:0.264583"
     sodipodi:nodetypes="ccccccccssscccsccc" />
</svg>
