<?xml version="1.0" encoding="UTF-8" standalone="no"?>
<svg
   id="svg6"
   y="0px"
   x="0px"
   xml:space="preserve"
   version="1.1"
   viewBox="0 0 108 108"
   width="108"
   height="108"
   xmlns:xlink="http://www.w3.org/1999/xlink"
   xmlns="http://www.w3.org/2000/svg"
   xmlns:svg="http://www.w3.org/2000/svg"
   xmlns:rdf="http://www.w3.org/1999/02/22-rdf-syntax-ns#"
   xmlns:cc="http://creativecommons.org/ns#"
   xmlns:dc="http://purl.org/dc/elements/1.1/">
   <metadata
   id="metadata12">
      <rdf:RDF>
         <cc:Work
   rdf:about="">
            <dc:format>image/svg+xml</dc:format>
            <dc:type
   rdf:resource="http://purl.org/dc/dcmitype/StillImage" />
         </cc:Work>
      </rdf:RDF>
   </metadata>
   <defs
   id="defs10"><linearGradient
     id="linearGradient847">
         <stop
   id="stop843"
   offset="0"
   style="stop-color:#000000;stop-opacity:0.25098041" />
         <stop
   id="stop845"
   offset="1"
   style="stop-color:#000000;stop-opacity:0" />
      </linearGradient><linearGradient
     gradientUnits="userSpaceOnUse"
     y2="98"
     x2="110"
     y1="43"
     x1="55"
     id="linearGradient849"
     xlink:href="#linearGradient847" /></defs>
   <circle
   style="fill:#43a047;fill-opacity:1;stroke:none;stroke-width:0.377952;stroke-linecap:round;paint-order:stroke fill markers"
   id="background_circle"
   cx="54"
   cy="54"
   r="54" /><path
   id="drop_shadow"
   style="color:#000000;opacity:1;solid-color:#000000;solid-opacity:1;fill:url(#linearGradient849);fill-opacity:1"
   d="M 85.138672 14.009766 C 85.138672 14.009766 82.338491 22.996128 70.654297 29.060547 C 65.889384 25.872719 60.164755 24.009766 54.009766 24.009766 C 37.719575 24.009766 24.443583 37.040877 24.029297 53.232422 C 20.963924 52.956814 17.560121 53.215562 14.009766 54.009766 L 26.253906 65.707031 C 26.284606 65.786381 26.314463 65.866254 26.345703 65.945312 L 26.4375 66.181641 C 28.682972 71.747517 32.256808 76.578683 36.105469 80.578125 C 45.809074 89.744708 54.853245 98.61822 63.505859 107.2832 A 54.000004 54.000004 0 0 0 108.18945 54.189453 A 54.000004 54.000004 0 0 0 103.62109 32.492188 L 85.138672 14.009766 z " />
   <g
   id="g891"
   style="fill:#ffffff;fill-opacity:1">
      <path
   id="poi"
   d="m 54,23.999998 c -16.550776,0 -30,13.449224 -30,30 0,0.598201 0.02199,1.191641 0.05664,1.78125 0.02251,0.426099 0.05611,0.847619 0.0957,1.267578 0.0014,0.01375 0.0044,0.02727 0.0059,0.04102 C 26.370786,80.226601 54,93.999998 54,93.999998 c 0,0 25.183858,-12.607454 29.390625,-33.958984 0.129654,-0.658063 0.241661,-1.323472 0.330078,-1.998047 0.06305,-0.466394 0.1169,-0.93531 0.158203,-1.408203 0.0175,-0.205777 0.03341,-0.411905 0.04687,-0.619141 C 83.970192,55.34887 84,54.677868 84,53.999998 c 0,-16.550776 -13.449224,-30 -30,-30 z m 0,3 c 14.929456,0 27,12.070545 27,27 0,14.929455 -12.070544,27 -27,27 -14.929454,0 -27,-12.070545 -27,-27 0,-14.929455 12.070546,-27 27,-27 z"
   style="fill:#ffffff;fill-opacity:1" />
      <path
   id="hummingbird"
   d="m 93.999996,26.327035 c 0,0 -3.858735,3.552415 -15.03466,5.752199 0,0 5.565487,-3.595915 4.587132,-10.317283 0,0 2.521553,-0.491334 1.576581,-7.761949 0,0 -3.275602,10.615206 -17.691226,16.556944 0,0 -7.713945,-8.183631 -13.932149,0.418844 -0.0121,0.01299 -0.02586,0.02225 -0.03645,0.03644 -0.584874,0.762666 -9.469223,11.463342 -9.469223,11.463342 l 0.09406,-0.0858 0.05077,-0.04761 8.635489,-7.99967 c 0.007,-0.0057 1.649368,-1.211657 4.530911,0.444226 1.468816,0.850835 3.214765,2.419009 5.034845,5.265811 0,0 3.305469,5.41319 14.328092,10.299676 1.325217,0.58749 3.325833,1.402902 5.325833,13.647799 0,0 2.485764,-17 -6.076134,-26.084483 -0.002,6.34e-4 9.776842,-0.694679 18.076133,-11.588432 z m -38.721211,6.001221 c -0.30652,0.02181 -0.577534,-0.187381 -0.604054,-0.467549 -0.02645,-0.279535 0.20084,-0.524782 0.508061,-0.546627 0.30722,-0.02185 0.577531,0.187387 0.604048,0.46755 0.02582,0.280218 -0.200837,0.524782 -0.508055,0.546626 z"
   style="fill:#ffffff;fill-opacity:1" />
      <g
   id="flower"
   style="fill:#ffffff;fill-opacity:1">
         <path
   id="path5220-3"
   d="m 14,53.999998 c 13.79472,5.18111 12.203009,13.165411 22.396456,15.9786 -0.788804,-2.014517 -3.241405,-9.546491 -8.425326,-11.566025 4.569511,1.230896 7.638537,7.800539 9.393561,10.428999 C 39.137848,55.711315 27.628386,50.951356 14,53.999998 Z"
   style="fill:#ffffff;fill-opacity:1" />
         <path
   id="path5222"
   d="m 64,68.084039 c -12.480719,-1.239926 -13.896022,6.462729 -22.771436,4.088788 1.409258,-2.449751 2.729304,-3.761472 5.808403,-5.946671 -2.55088,1.485414 -4.134532,2.709286 -6.247411,5.508427 C 44.230541,60.619847 54.778819,60.631887 64,68.084039 Z"
   style="fill:#ffffff;fill-opacity:1" />
         <path
   id="path5224"
   d="m 51.979444,48.897188 c -0.967227,0.261541 -0.701605,-1.401578 -1.492424,-1.665126 -0.96622,-0.613943 -1.322061,3.06269 -2.903698,2.535593 -1.054425,-0.351398 -0.34879,-2.451757 -0.963198,-3.240395 -1.228819,-1.577277 -2.904706,3.411077 -3.957116,1.308711 -0.701606,-1.401578 0.971258,-3.763479 -0.523182,-3.677636 -0.615417,0.08685 -1.231842,1.049176 -1.846251,0.260538 -1.756032,-1.752975 -3.163275,-1.054193 -4.220722,1.220862 -1.762076,3.49993 -1.067522,11.029897 1.038306,14.359145 1.140614,1.839821 2.109856,-0.172689 3.338676,1.404588 1.317023,1.314731 1.934455,-0.523083 2.987873,0.703799 0.0872,0.612939 0.702613,0.526093 1.142629,0.08885 3.781713,-1.659105 7.740845,-4.718785 9.415723,-8.831654 0.793841,-2.362904 0.88406,-4.376418 -2.016616,-4.467277 z"
   style="fill:#ffffff;fill-opacity:1" />
         <path
   id="path5226"
   d="m 45.834341,41.88629 c 0.702616,0.526093 0.965213,1.489427 0.436994,2.189212 -0.264613,0.787635 -1.231842,1.049177 -1.934455,0.523083 -0.790819,-0.263548 -1.053418,-1.226882 -0.788804,-2.014516 0.528219,-0.699786 1.495448,-0.961327 2.286265,-0.697779 z"
   style="fill:#ffffff;fill-opacity:1" />
         <path
   id="path5228"
   d="m 49.260215,43.903817 c 0.790819,0.263548 1.053418,1.226882 0.788804,2.014517 -0.528219,0.699785 -1.495448,0.961327 -2.198062,0.435233 -0.527213,-0.175698 -0.789811,-1.139032 -0.525198,-1.926667 0.52822,-0.699785 1.231842,-1.049176 1.934456,-0.523083 z"
   style="fill:#ffffff;fill-opacity:1" />
         <path
   id="path5230"
   d="m 49.088843,40.051486 c 0.702614,0.526093 1.053417,1.226882 0.525197,1.926667 -0.264613,0.787635 -1.231841,1.049176 -2.02266,0.785628 -0.702614,-0.526093 -0.965213,-1.489427 -0.525197,-1.926667 0.264613,-0.787635 1.231841,-1.049177 2.02266,-0.785628 z"
   style="fill:#ffffff;fill-opacity:1" />
         <path
   id="path5232"
   d="m 51.635694,42.068009 c 0.527213,0.175699 0.878016,0.876488 0.349795,1.576273 -0.176409,0.52509 -0.791826,0.611936 -1.319039,0.436237 -0.439007,-0.438243 -0.789811,-1.139032 -0.349795,-1.576273 0.176409,-0.52509 0.791826,-0.611936 1.319039,-0.436237 z"
   style="fill:#ffffff;fill-opacity:1" />
         <path
   id="path5234"
   d="m 46.189174,39.085142 c 0.439008,0.438244 0.526205,1.051183 0.349796,1.576273 -0.440015,0.43724 -1.055432,0.524086 -1.582644,0.348387 -0.439008,-0.438243 -0.526205,-1.051183 -0.349796,-1.576272 0.440015,-0.437241 1.055433,-0.524087 1.582644,-0.348388 z"
   style="fill:#ffffff;fill-opacity:1" />
         <path
   id="path5236"
   d="m 42.142848,41.531882 c 0.527211,0.175699 0.878016,0.876488 0.349795,1.576273 -0.176409,0.52509 -0.791826,0.611936 -1.319039,0.436237 -0.439008,-0.438244 -0.789811,-1.139032 -0.349796,-1.576273 0.176409,-0.52509 0.791826,-0.611936 1.31904,-0.436237 z"
   style="fill:#ffffff;fill-opacity:1" />
         <path
   id="path5238"
   d="m 52.511694,44.695465 c 0.439008,0.438244 0.789811,1.139033 0.349796,1.576273 -0.176409,0.52509 -0.791826,0.611936 -1.319039,0.436237 -0.527212,-0.175698 -0.878015,-0.876487 -0.349796,-1.576273 0.17641,-0.525089 0.791827,-0.611935 1.319039,-0.436237 z"
   style="fill:#ffffff;fill-opacity:1" />
         <path
   id="path5240"
   d="m 40.18522,62.191103 c -2.204106,5.688139 -2.473757,10.853194 -0.37095,16.808895 l 1.319037,-0.436237 C 39.293101,73.571394 39.300153,67.443005 41.239646,62.5425 c -0.35181,0.174696 -0.615418,0.08685 -1.054426,-0.351397 z"
   style="fill:#ffffff;fill-opacity:1" />
      </g>
   </g>
</svg>
